PathFileType	4	(X/Y/Z)	path1_15_0-580.trc
DataRate	CameraRate	NumFrames	NumMarkers	Units	OrigDataRate	OrigDataStartFrame	OrigNumFrames
30	30	6	22	m	30	290	580
Frame#	Time	Hip			RHip			RKnee			RAnkle			RBigToe			RSmallToe			RHeel			LHip			LKnee			LAnkle			LBigToe			LSmallToe			LHeel			Neck			Head			Nose			RShoulder			RElbow			RWrist			LShoulder			LElbow			LWrist		
		X1	Y1	Z1	X2	Y2	Z2	X3	Y3	Z3	X4	Y4	Z4	X5	Y5	Z5	X6	Y6	Z6	X7	Y7	Z7	X8	Y8	Z8	X9	Y9	Z9	X10	Y10	Z10	X11	Y11	Z11	X12	Y12	Z12	X13	Y13	Z13	X14	Y14	Z14	X15	Y15	Z15	X16	Y16	Z16	X17	Y17	Z17	X18	Y18	Z18	X19	Y19	Z19	X20	Y20	Z20	X21	Y21	Z21	X22	Y22	Z22
291	9.7	2.476112149630549	0.8333813630320702	0.5264874433248544	2.4839155680725087	0.7950385720582833	0.44840085195640456	2.483743706534628	0.4574300880571404	0.4639394295378945	2.5374662202952813	0.10086375009782902	0.4883031241918526	2.3479189249049073	0.025107995799219723	0.45226375750472714	2.3880253659712465	0.02218519867884969	0.39791461305806886	2.5875990875814217	0.029135247448150735	0.4898069396067347	2.475165105842544	0.7942822411752536	0.6072608956417853	2.4856926720544705	0.4384074828188198	0.5954496972567805	2.525643134510118	0.11217836997965709	0.6045897435111708	2.3707326623418226	0.012328091318640773	0.6269019609707066	2.404226470387826	0.020290790733684318	0.6745485160772005	2.5739105916820515	0.03881257908744358	0.6040684070117369	2.4422802054475214	1.4692025037900283	0.5373592805191615	2.4022434306576215	1.7045696265273638	0.5137403355769425	2.304242370144398	1.602943349371109	0.519695376495149	2.4982725412524527	1.3656912167902524	0.3705312656250162	2.500970429927214	1.0718353308747692	0.32363182688200787	2.4753060799136986	0.8410861411653552	0.31853639269704115	2.4499168908800852	1.345189370642782	0.7043059245230004	2.4781716717117743	1.0677913828132821	0.7366132306454918	2.471609290081301	0.8339872429062724	0.7396683466398557
292	9.733333333333333	2.476023523173996	0.8335475560081546	0.5264697141032296	2.4835722013269534	0.7959265430062843	0.44848896274812533	2.478390505344576	0.4604773992957452	0.456547141654832	2.537736610607443	0.10004748070989575	0.488943992691272	2.348089978222005	0.0252134963302863	0.4520908367510024	2.38798159299076	0.022147735529830452	0.3980921977110698	2.5872714954036966	0.02897530099203887	0.4894179637086668	2.475540971151906	0.7948303192215882	0.6071407078245691	2.4858089167626867	0.43889553922324737	0.5955666353791234	2.5259964936703936	0.11227489802283602	0.6050804360670347	2.3697215352181322	0.012274268359543518	0.6266186388353304	2.403922487890453	0.019854025412728214	0.6737721751789918	2.574260754970654	0.03924374993021871	0.6041379740035236	2.442634836188329	1.4690210516317685	0.5382666939774562	2.404728375720506	1.7074677350337752	0.5052514339547526	2.304524323242225	1.6027958859056366	0.5205993694558662	2.4981403499304466	1.3657107739028873	0.37062009698170484	2.498249919154812	1.0724226282253386	0.31897870273631745	2.4751484838760205	0.8408885784495379	0.31881044505056055	2.4500168954316948	1.345200805178959	0.7052262745952071	2.4784032858128775	1.0679483942104278	0.7369658664606894	2.471723887547338	0.8339344046118319	0.7396961863898126
293	9.766666666666667	2.4763584377395134	0.8337876594701632	0.5265631037194589	2.483689253329626	0.7971743051199006	0.44894633645566395	2.4750476488239137	0.4623278691258202	0.45232869790959473	2.5384964555166083	0.09878521697839757	0.4904832304458763	2.3482122299497474	0.02548011304938294	0.4521323771126552	2.3877700821660603	0.022195046510922564	0.3984173435155044	2.5868611488627073	0.029210872697335178	0.4898080171413805	2.4760849897812856	0.7961816640021911	0.6076000701309745	2.4858828561378696	0.4398182070131403	0.5962893662584932	2.526965058233729	0.11207207109160551	0.6061163213453488	2.369481932898091	0.01214396578672112	0.6269787027347603	2.4024436445246726	0.020423126227614833	0.6730334868843995	2.574741653798493	0.0395033572162215	0.6042819264753553	2.4431176196039326	1.4687655258560302	0.5394298191092027	2.4062967625932306	1.7103042392031087	0.49733609792113415	2.305068253407364	1.6025357739724422	0.521523673546367	2.4981610989651513	1.3657779253898281	0.37088047104773636	2.496682059321126	1.0727655002448828	0.3162602957416652	2.474894968895175	0.840431235323742	0.3191216933248175	2.451979247025123	1.3457969310568247	0.7037515914216445	2.4786701479075406	1.0679201096983704	0.7372748086262546	2.4717129322746216	0.8337316536858761	0.7396784929052033
294	9.8	2.476985443236226	0.8340438607110167	0.5266742762119209	2.4841750587895457	0.7984546994283295	0.4495689914453075	2.474147826245488	0.46265834784406545	0.45172535617505444	2.5394995953925674	0.09740302073772288	0.4924207223704873	2.3482773594577506	0.02575772928658751	0.4522835415505359	2.3875431523710913	0.022260985239436176	0.398757158322848	2.5863958252818993	0.02951632290769616	0.4901926758145915	2.4766088977894576	0.7978697350803337	0.6084165056546762	2.485867904737031	0.4410208100391702	0.5976181213991736	2.528704023748222	0.11126278950668478	0.607793835470804	2.369332339899461	0.01241476057302965	0.6275258956645968	2.4010209321254727	0.021067696144505616	0.6725631201421082	2.575440037226556	0.039374928003910216	0.6043925446971439	2.4435677179848563	1.4685245755515726	0.540536639170836	2.4069741097198856	1.71262043011407	0.4919085306488412	2.305749060063319	1.6022186291590592	0.5224517902399289	2.498347309648631	1.3658741497802147	0.37129736834187416	2.4960000170076166	1.072969815041605	0.3150981889529605	2.4746296382486266	0.8398456725199998	0.31948940998615394	2.4549385258230654	1.3467412225771156	0.700732240368345	2.4789661396285827	1.067677708372575	0.7374700428740943	2.471672348588147	0.8333424413914587	0.7396230973871813
295	9.833333333333334	2.4776802579909667	0.8342488562954375	0.5267204849376343	2.484818418799157	0.7993866792664253	0.4500810503935329	2.475557290773098	0.4615153526484809	0.4544166434863782	2.54041137515744	0.09627344543432104	0.49411528710314584	2.348343217208273	0.025903843080127765	0.45245117463120155	2.3874311055946538	0.022278226850411226	0.3989852053819762	2.5859810204204647	0.029652749275323877	0.49007702127630925	2.4769517369828358	0.7992724771190027	0.6092382669917914	2.485723691329432	0.4422437072108226	0.5993623435977843	2.530992444297766	0.10984696900250258	0.6099939754125572	2.3688152628117347	0.013186651933590933	0.6277906146858795	2.4007965194011405	0.020844670622302015	0.6724607291075991	2.576185362739434	0.03889319011425739	0.6044218313516135	2.443836352162142	1.468370557803649	0.5413163390800473	2.407118214686047	1.7141686608244102	0.4892388220346302	2.3063594322412717	1.6019640502925943	0.5232586304679429	2.4986203386389714	1.3659326101009353	0.37172259555149956	2.4958650505451763	1.073118339059353	0.3149217381340221	2.474442395683887	0.8392941568284406	0.31988056072437737	2.457616638809146	1.347564660432343	0.6977653788287582	2.479260341600532	1.0672653710429587	0.737522459114763	2.471686189752777	0.8328306962038157	0.7395344094888463
296	9.866666666666667	2.4782601843683585	0.8343518472162559	0.5267081353490569	2.4854177988948836	0.7997416482961581	0.45033078850105046	2.4786569758353796	0.4593237643220108	0.4594325477847924	2.5410915575658044	0.09551401202856168	0.49533688035959256	2.348509864641096	0.025840446192331376	0.45258510020078163	2.3874945596639585	0.022193770745774607	0.3990426688957258	2.5857493906893243	0.029605137642188056	0.48965207465336735	2.477090769928838	0.7999749333740135	0.6098261046722038	2.4855397438576428	0.44311970458412114	0.6011272311532705	2.533366780794585	0.10811167962979062	0.6123530525998697	2.3681098326142016	0.014141070278377077	0.6276981675113416	2.40192194075705	0.01966923987206721	0.6726373305345028	2.5767616066023202	0.0382486129157683	0.6044171103966325	2.4438820349634724	1.4683054253250059	0.5416613855095712	2.4071556928904574	1.7149778943801557	0.4884760421962946	2.306759009849643	1.6018860596259237	0.5238003707486639	2.498873444944199	1.3658848937729708	0.37199579408246336	2.4960221420311863	1.0732259126002568	0.31524018793013503	2.4743798800447143	0.8389041778930395	0.32022647417951766	2.4589108811520033	1.347814706889176	0.6964571151847269	2.479500552056617	1.066774111455439	0.7374464058776046	2.4717671673818353	0.8323312130892584	0.739423899222158
